# xmcd CD database file generated by Grip 3.2.0
# 
# Track frame offsets:
#       182
#       12155
#       34802
#       47990
#       57062
#       66217
#       81155
#       106825
#       120862
#       135042
# 
# Disc length: 1942 seconds
# 
# Revision: 3
# Processed by: cddbd v1.5.2PL0 Copyright (c) Steve Scherf et al.
# Submitted via: Grip 3.2.0
# 
DISCID=7207940a
DTITLE=Elis Regina e Jair Rodrigues - Dois na Bossa número 3
DYEAR=1967
DGENRE=Other
TTITLE0=Imagem
TTITLE1=Pot-Pourri de Mangueira (Mangueira, Fala Mangueira, ExaltaçãoàM
TTITLE1=angueira, Mundo de zinco, Levanta Mangueira, Despedida de Mangueir
TTITLE1=a, Pra machucar meu coração)
TTITLE2=O ser humano
TTITLE3=Cruz de cinza, cruz de sal
TTITLE4=Serenata em teleco-teco
TTITLE5=Manifesto
TTITLE6=Pot-Pourri romântico (Minha namorada, Eu sei que vou te amar, A v
TTITLE6=olta, Primavera)
TTITLE7=Amor de carnaval
TTITLE8=Marcha da quarta-feira de cinzas
TTITLE9=Capoeira camará
EXTD=
EXTT0=
EXTT1=
EXTT2=
EXTT3=
EXTT4=
EXTT5=
EXTT6=
EXTT7=
EXTT8=
EXTT9=
PLAYORDER=
